<svg width="187" height="151" viewBox="0 0 187 151" fill="none" xmlns="http://www.w3.org/2000/svg">
<path d="M94.1215 141.306L186.256 87.4162L86.1745 35.0161L0 87.4162L94.1215 141.306Z" fill="#44474E"/>
<path d="M94.1215 141.306L186.256 87.4163V93.0242C186.256 94.7815 185.328 96.408 183.814 97.3014L96.6196 148.772C95.0762 149.683 93.1616 149.692 91.6098 148.795L2.48185 97.294C0.945989 96.4065 0 94.7673 0 92.9935V87.4163L94.1215 141.306Z" fill="#2F323A"/>
<path d="M16.639 86.1745L69.2875 54.1384L151.24 98.8399L95.3633 131.869L16.639 86.1745Z" fill="#3E4048"/>
<path d="M16.639 86.1745L69.2875 54.1384L151.24 98.8399L144.518 102.813L69.2875 61.3403L22.5992 89.634L16.639 86.1745Z" fill="#4E5159"/>
<path d="M38.9891 78.7237C57.6148 75.4949 72.0186 77.2834 71.0252 88.4091C70.6704 92.3831 68.5418 98.4336 73.0119 101.075C79.2205 104.744 86.6707 104.303 95.3627 101.075C101.82 98.6768 109.021 95.8599 113.492 100.082C117.713 104.069 112.25 111.257 116.72 115.727" stroke="#FF664F" stroke-width="1.49005" stroke-linecap="round"/>
<path d="M93.6239 64.3205L107.283 55.6286V18.874L93.6239 27.3176V64.3205Z" fill="#E85842"/>
<path d="M79.4686 55.6286V18.874L93.6241 27.3176V64.3205L79.4686 55.6286Z" fill="#FF7661"/>
<path d="M79.4686 18.8741L93.6241 10.1821L107.283 18.8741L93.6241 27.3177L79.4686 18.8741Z" fill="#FF664F"/>
<path d="M105.296 68.7906V23.0957L119.451 31.5393V77.4825L105.296 68.7906Z" fill="#FDD147"/>
<path d="M119.453 77.4825L134.096 68.7906V23.0957L119.453 31.5393V77.4825Z" fill="#FFE9A3"/>
<path d="M105.296 23.0958L119.452 14.4038L134.095 23.0958L119.452 31.5394L105.296 23.0958Z" fill="#FDDC72"/>
<path d="M132.615 84.6845V56.3735L146.77 64.8172V93.3764L132.615 84.6845Z" fill="#9FDA72"/>
<path d="M146.77 93.3764L160.429 84.6844V56.6218L146.77 64.8171V93.3764Z" fill="#85D67F"/>
<path d="M132.615 56.3735L146.771 47.9299L160.43 56.6219L146.771 64.8172L132.615 56.3735Z" fill="#95E089"/>
<path d="M107.283 11.1096V1.74017C107.283 0.971153 108.12 0.493786 108.782 0.884797L132.871 15.1089C133.174 15.2875 133.359 15.6128 133.359 15.9642V24.418C133.359 25.1684 132.559 25.6479 131.897 25.2939L123.195 20.6393C122.877 20.4694 122.493 20.4848 122.19 20.6797L120.088 22.0305C119.608 22.3391 118.967 22.1806 118.686 21.6837L116.104 17.1154C116.02 16.9658 115.898 16.8408 115.751 16.7524L107.766 11.9614C107.466 11.7819 107.283 11.4586 107.283 11.1096Z" fill="white"/>
<path d="M110.031 8.81556L128.394 19.1223L128.378 16.7631L110.001 6.58105L110.031 8.81556Z" fill="#C0C0C0"/>
<ellipse cx="112.498" cy="98.3434" rx="4.22181" ry="2.9801" fill="#FBFAFD"/>
<ellipse cx="112.499" cy="97.5984" rx="3.22844" ry="2.23507" fill="#FF8573"/>
</svg>
