<svg width="8" height="8" viewBox="0 0 8 8" fill="none" xmlns="http://www.w3.org/2000/svg">
<path d="M0.48084 4.65475C0.513574 4.66094 0.546702 4.6638 0.579847 4.6633L6.22369 4.6633L6.10062 4.73004C5.98033 4.79643 5.8709 4.88679 5.77722 4.99702L4.19455 6.84247C3.9861 7.07449 3.95108 7.44773 4.11155 7.72682C4.29831 8.02423 4.65647 8.0888 4.91154 7.87103C4.93215 7.85343 4.95174 7.83424 4.97014 7.81359L7.83212 4.47642C8.05579 4.21591 8.05598 3.79332 7.83257 3.53252C7.83243 3.53235 7.83227 3.53216 7.83212 3.532L4.97014 0.194825C4.7463 -0.0654532 4.38388 -0.0648696 4.16065 0.196139C4.14308 0.216684 4.12668 0.238542 4.11155 0.261568C3.95108 0.540661 3.9861 0.913902 4.19454 1.14592L5.77436 2.99471C5.85834 3.09274 5.9549 3.17494 6.06056 3.23833L6.23228 3.32843L0.611346 3.32843C0.318941 3.31577 0.0624004 3.55394 0.00746834 3.88908C-0.043135 4.25293 0.168795 4.59572 0.48084 4.65475Z" fill="white"/>
</svg>
