<svg width="180" height="141" viewBox="0 0 180 141" fill="none" xmlns="http://www.w3.org/2000/svg">
<rect width="179.231" height="140" rx="6.92308" fill="white"/>
<rect x="15.7692" y="56.9233" width="40" height="24.6154" rx="3.23077" stroke="#F1F1F7" stroke-width="1.53846"/>
<rect x="15.7692" y="90.7692" width="40" height="24.6154" rx="3.23077" stroke="#F1F1F7" stroke-width="1.53846"/>
<rect x="61.9235" y="56.9233" width="40" height="24.6154" rx="3.23077" stroke="#F1F1F7" stroke-width="1.53846"/>
<rect x="119.617" y="90.7692" width="40" height="24.6154" rx="3.23077" stroke="#EAE7F6" stroke-width="1.53846"/>
<g filter="url(#filter0_d_4_53)">
<rect x="59.6152" y="87.6924" width="55.3846" height="30.7692" rx="4" fill="#FF7661"/>
</g>
<path d="M91.4131 98L93 99.587L85.5766 107.01L81 102.434L82.5869 100.847L85.5766 103.837L91.4131 98Z" fill="white"/>
<g filter="url(#filter1_d_4_53)">
<rect x="108.078" y="53.8459" width="55.3846" height="30.7692" rx="4" fill="#85D67F"/>
</g>
<path d="M140.413 65L142 66.587L134.577 74.0104L130 69.434L131.587 67.847L134.577 70.8365L140.413 65Z" fill="white"/>
<path d="M16.1976 41H22.4192V39.4915H18.7544V39.4318L20.0286 38.1832C21.8226 36.5469 22.3042 35.7287 22.3042 34.7358C22.3042 33.223 21.0684 32.1534 19.1976 32.1534C17.3652 32.1534 16.1081 33.2486 16.1124 34.9616H17.8638C17.8596 34.1264 18.388 33.6151 19.1848 33.6151C19.9519 33.6151 20.5229 34.0923 20.5229 34.8594C20.5229 35.554 20.0968 36.0312 19.3042 36.794L16.1976 39.6705V41ZM23.4366 39.4659H27.6255V41H29.3897V39.4659H30.4721V37.9872H29.3897V32.2727H27.0801L23.4366 38.0128V39.4659ZM27.6596 37.9872H25.2946V37.919L27.5914 34.2841H27.6596V37.9872ZM34.53 32.2727V41H36.3198V35.2983H36.3922L38.6507 40.9574H39.8695L42.128 35.3196H42.2005V41H43.9902V32.2727H41.7147L39.3113 38.1364H39.209L36.8056 32.2727H34.53ZM47.3429 41.1236C48.3102 41.1236 48.9366 40.7017 49.2562 40.0923H49.3074V41H51.0289V36.5852C51.0289 35.0256 49.7079 34.3693 48.2505 34.3693C46.6824 34.3693 45.6511 35.1193 45.3997 36.3125L47.0787 36.4489C47.2022 36.0142 47.59 35.6946 48.242 35.6946C48.8599 35.6946 49.2136 36.0057 49.2136 36.5426V36.5682C49.2136 36.9901 48.7662 37.0455 47.6284 37.1562C46.3329 37.2756 45.1696 37.7102 45.1696 39.1719C45.1696 40.4673 46.0943 41.1236 47.3429 41.1236ZM47.8627 39.8707C47.3045 39.8707 46.9039 39.6108 46.9039 39.1122C46.9039 38.6009 47.3258 38.3494 47.965 38.2599C48.3613 38.2045 49.0091 38.1108 49.2264 37.9659V38.6605C49.2264 39.3466 48.6596 39.8707 47.8627 39.8707ZM53.3237 43.4545C54.6745 43.4545 55.3904 42.7642 55.7612 41.7074L58.3052 34.4631L56.3833 34.4545L55.0154 39.2614H54.9473L53.5922 34.4545H51.6831L54.0311 41.1875L53.9245 41.4645C53.6859 42.0781 53.2299 42.108 52.5907 41.9119L52.1816 43.267C52.4416 43.3778 52.8635 43.4545 53.3237 43.4545Z" fill="#020206"/>
<path d="M74.6953 42H78.0461V41.3413H75.7542V41.304L76.7659 40.245C77.6981 39.3029 77.9641 38.853 77.9641 38.2837C77.9641 37.4659 77.2979 36.8395 76.3384 36.8395C75.3863 36.8395 74.6903 37.456 74.6903 38.3857H75.4236C75.4211 37.8388 75.7741 37.4808 76.3235 37.4808C76.8405 37.4808 77.2333 37.799 77.2333 38.3061C77.2333 38.756 76.9648 39.0792 76.4179 39.6584L74.6953 41.4432V42ZM80.6686 42.0696C81.6928 42.0696 82.4236 41.3462 82.4211 40.3544C82.4236 39.37 81.7375 38.6541 80.8103 38.6541C80.4325 38.6541 80.082 38.7983 79.8831 38.9922H79.8533L80.0149 37.5678H82.175V36.9091H79.376L79.0902 39.4744L79.7936 39.5788C79.985 39.4073 80.3281 39.2905 80.6363 39.2905C81.2404 39.2955 81.6779 39.7479 81.6779 40.3693C81.6779 40.9808 81.2528 41.4233 80.6686 41.4233C80.1764 41.4233 79.7862 41.1101 79.7464 40.6726H79.0007C79.0305 41.483 79.734 42.0696 80.6686 42.0696ZM85.2512 36.9091V42H85.982V38.3136H86.0293L87.5307 41.9925H88.1372L89.6386 38.3161H89.6859V42H90.4167V36.9091H89.4845L87.8638 40.8665H87.8041L86.1834 36.9091H85.2512ZM92.5849 42.0845C93.2163 42.0845 93.5718 41.7638 93.7135 41.478H93.7433V42H94.4691V39.4645C94.4691 38.3533 93.5941 38.1321 92.9876 38.1321C92.2966 38.1321 91.6602 38.4105 91.4116 39.1065L92.1101 39.2656C92.2195 38.9947 92.4979 38.7337 92.9976 38.7337C93.4773 38.7337 93.7234 38.9847 93.7234 39.4173V39.4347C93.7234 39.7056 93.445 39.7006 92.7589 39.7802C92.0356 39.8647 91.2948 40.0536 91.2948 40.9212C91.2948 41.6719 91.8591 42.0845 92.5849 42.0845ZM92.7465 41.4879C92.3264 41.4879 92.0231 41.299 92.0231 40.9311C92.0231 40.5334 92.3761 40.3917 92.8062 40.3345C93.0473 40.3022 93.619 40.2376 93.7259 40.1307V40.6229C93.7259 41.0753 93.3655 41.4879 92.7465 41.4879ZM95.7922 43.4318C96.4062 43.4318 96.794 43.1112 97.0152 42.5096L98.5937 38.1893L97.7908 38.1818L96.8238 41.1449H96.784L95.8171 38.1818H95.0216L96.4186 42.0497L96.3267 42.3033C96.1377 42.8104 95.8718 42.8526 95.4641 42.7408L95.2851 43.3498C95.3746 43.3896 95.5685 43.4318 95.7922 43.4318Z" fill="#848486"/>
<path d="M106.641 42H109.991V41.3413H107.7V41.304L108.711 40.245C109.643 39.3029 109.909 38.853 109.909 38.2837C109.909 37.4659 109.243 36.8395 108.284 36.8395C107.332 36.8395 106.636 37.456 106.636 38.3857H107.369C107.366 37.8388 107.719 37.4808 108.269 37.4808C108.786 37.4808 109.179 37.799 109.179 38.3061C109.179 38.756 108.91 39.0792 108.363 39.6584L106.641 41.4432V42ZM112.711 42.0696C113.775 42.0795 114.481 41.3139 114.478 40.337C114.481 39.3626 113.772 38.6641 112.89 38.6641C112.353 38.6641 111.888 38.9226 111.627 39.3526H111.59C111.592 38.1967 112.03 37.5107 112.776 37.5107C113.265 37.5107 113.573 37.8089 113.678 38.2315H114.436C114.319 37.4261 113.685 36.8395 112.776 36.8395C111.592 36.8395 110.854 37.8562 110.854 39.6261C110.852 41.5004 111.806 42.0621 112.711 42.0696ZM112.708 41.4233C112.117 41.4233 111.684 40.9261 111.684 40.3544C111.687 39.7852 112.139 39.288 112.726 39.288C113.307 39.288 113.735 39.7578 113.733 40.3469C113.735 40.9485 113.29 41.4233 112.708 41.4233ZM117.306 36.9091V42H118.037V38.3136H118.084L119.585 41.9925H120.192L121.693 38.3161H121.741V42H122.471V36.9091H121.539L119.918 40.8665H119.859L118.238 36.9091H117.306ZM124.64 42.0845C125.271 42.0845 125.626 41.7638 125.768 41.478H125.798V42H126.524V39.4645C126.524 38.3533 125.649 38.1321 125.042 38.1321C124.351 38.1321 123.715 38.4105 123.466 39.1065L124.165 39.2656C124.274 38.9947 124.553 38.7337 125.052 38.7337C125.532 38.7337 125.778 38.9847 125.778 39.4173V39.4347C125.778 39.7056 125.5 39.7006 124.814 39.7802C124.09 39.8647 123.349 40.0536 123.349 40.9212C123.349 41.6719 123.914 42.0845 124.64 42.0845ZM124.801 41.4879C124.381 41.4879 124.078 41.299 124.078 40.9311C124.078 40.5334 124.431 40.3917 124.861 40.3345C125.102 40.3022 125.674 40.2376 125.781 40.1307V40.6229C125.781 41.0753 125.42 41.4879 124.801 41.4879ZM127.847 43.4318C128.461 43.4318 128.849 43.1112 129.07 42.5096L130.648 38.1893L129.845 38.1818L128.879 41.1449H128.839L127.872 38.1818H127.076L128.473 42.0497L128.381 42.3033C128.192 42.8104 127.926 42.8526 127.519 42.7408L127.34 43.3498C127.429 43.3896 127.623 43.4318 127.847 43.4318Z" fill="#B5B5B6"/>
<path d="M138.839 42H142.19V41.3413H139.898V41.304L140.909 40.245C141.842 39.3029 142.108 38.853 142.108 38.2837C142.108 37.4659 141.441 36.8395 140.482 36.8395C139.53 36.8395 138.834 37.456 138.834 38.3857H139.567C139.565 37.8388 139.918 37.4808 140.467 37.4808C140.984 37.4808 141.377 37.799 141.377 38.3061C141.377 38.756 141.108 39.0792 140.561 39.6584L138.839 41.4432V42ZM143.303 42H144.106L146.321 37.5902V36.9091H142.955V37.5678H145.526V37.6051L143.303 42ZM149.108 36.9091V42H149.838V38.3136H149.886L151.387 41.9925H151.994L153.495 38.3161H153.542V42H154.273V36.9091H153.341L151.72 40.8665H151.661L150.04 36.9091H149.108ZM156.441 42.0845C157.073 42.0845 157.428 41.7638 157.57 41.478H157.6V42H158.326V39.4645C158.326 38.3533 157.451 38.1321 156.844 38.1321C156.153 38.1321 155.517 38.4105 155.268 39.1065L155.967 39.2656C156.076 38.9947 156.354 38.7337 156.854 38.7337C157.334 38.7337 157.58 38.9847 157.58 39.4173V39.4347C157.58 39.7056 157.301 39.7006 156.615 39.7802C155.892 39.8647 155.151 40.0536 155.151 40.9212C155.151 41.6719 155.716 42.0845 156.441 42.0845ZM156.603 41.4879C156.183 41.4879 155.88 41.299 155.88 40.9311C155.88 40.5334 156.233 40.3917 156.663 40.3345C156.904 40.3022 157.475 40.2376 157.582 40.1307V40.6229C157.582 41.0753 157.222 41.4879 156.603 41.4879ZM159.649 43.4318C160.263 43.4318 160.65 43.1112 160.872 42.5096L162.45 38.1893L161.647 38.1818L160.68 41.1449H160.64L159.674 38.1818H158.878L160.275 42.0497L160.183 42.3033C159.994 42.8104 159.728 42.8526 159.321 42.7408L159.142 43.3498C159.231 43.3896 159.425 43.4318 159.649 43.4318Z" fill="#E6E6E7"/>
<circle cx="20.0769" cy="15.3845" r="3.07692" fill="#C9C8D3"/>
<circle cx="32.3836" cy="15.3845" r="3.07692" fill="#C9C8D3"/>
<circle cx="44.6941" cy="15.3845" r="3.07692" fill="#C9C8D3"/>
<defs>
<filter id="filter0_d_4_53" x="51.6152" y="87.6924" width="71.3846" height="52.7693" filterUnits="userSpaceOnUse" color-interpolation-filters="sRGB">
<feFlood flood-opacity="0" result="BackgroundImageFix"/>
<feColorMatrix in="SourceAlpha" type="matrix" values="0 0 0 0 0 0 0 0 0 0 0 0 0 0 0 0 0 0 127 0" result="hardAlpha"/>
<feMorphology radius="12" operator="erode" in="SourceAlpha" result="effect1_dropShadow_4_53"/>
<feOffset dy="14"/>
<feGaussianBlur stdDeviation="10"/>
<feColorMatrix type="matrix" values="0 0 0 0 1 0 0 0 0 0.462745 0 0 0 0 0.380392 0 0 0 1 0"/>
<feBlend mode="normal" in2="BackgroundImageFix" result="effect1_dropShadow_4_53"/>
<feBlend mode="normal" in="SourceGraphic" in2="effect1_dropShadow_4_53" result="shape"/>
</filter>
<filter id="filter1_d_4_53" x="100.078" y="53.8459" width="71.3846" height="52.7693" filterUnits="userSpaceOnUse" color-interpolation-filters="sRGB">
<feFlood flood-opacity="0" result="BackgroundImageFix"/>
<feColorMatrix in="SourceAlpha" type="matrix" values="0 0 0 0 0 0 0 0 0 0 0 0 0 0 0 0 0 0 127 0" result="hardAlpha"/>
<feMorphology radius="12" operator="erode" in="SourceAlpha" result="effect1_dropShadow_4_53"/>
<feOffset dy="14"/>
<feGaussianBlur stdDeviation="10"/>
<feColorMatrix type="matrix" values="0 0 0 0 0.458315 0 0 0 0 0.704167 0 0 0 0 0.440104 0 0 0 1 0"/>
<feBlend mode="normal" in2="BackgroundImageFix" result="effect1_dropShadow_4_53"/>
<feBlend mode="normal" in="SourceGraphic" in2="effect1_dropShadow_4_53" result="shape"/>
</filter>
</defs>
</svg>
