<svg width="131" height="135" viewBox="0 0 131 135" fill="none" xmlns="http://www.w3.org/2000/svg">
<path d="M106.15 87.7515H75.1787V121.303H106.15V87.7515Z" fill="#B1A478"/>
<path d="M130.669 18.9045C130.669 15.5908 127.982 12.9045 124.669 12.9045H19.2368C15.9231 12.9045 13.2368 15.5908 13.2368 18.9045V128.208C13.2368 131.522 15.9231 134.208 19.2368 134.208H124.669C127.982 134.208 130.669 131.522 130.669 128.208V18.9045Z" fill="#33353D"/>
<path d="M117.764 6C117.764 2.68629 115.078 0 111.764 0H6.33204C3.01833 0 0.332031 2.68629 0.332031 6V115.303C0.332031 118.617 3.01832 121.303 6.33203 121.303H111.764C115.078 121.303 117.764 118.617 117.764 115.303V6Z" fill="#4E5159"/>
<path d="M108.73 82.5896H6.78369V90.3324H108.73V82.5896Z" fill="#B1A478"/>
<path d="M108.73 98.0751H6.78369V105.818H108.73V98.0751Z" fill="#B1A478"/>
<path fill-rule="evenodd" clip-rule="evenodd" d="M107.08 11.7075H72.3932C71.8128 11.7075 71.3422 12.1781 71.3422 12.7587V34.8316C71.3422 35.4122 71.8128 35.8828 72.3932 35.8828H107.08C107.66 35.8828 108.131 35.4122 108.131 34.8316V12.7587C108.131 12.1781 107.66 11.7075 107.08 11.7075ZM72.3932 10.6565C71.2322 10.6565 70.291 11.5977 70.291 12.7587V34.8316C70.291 35.9926 71.2322 36.9338 72.3932 36.9338H107.08C108.241 36.9338 109.182 35.9926 109.182 34.8316V12.7587C109.182 11.5977 108.241 10.6565 107.08 10.6565H72.3932Z" fill="#BBAD81"/>
<path d="M73.6965 26.3343C73.3462 26.1417 72.9177 26.3951 72.9177 26.7948L72.9175 32.7294C72.9175 33.0196 73.1529 33.2548 73.4431 33.2548H106.027C106.318 33.2548 106.553 33.0196 106.553 32.7294V23.8984C106.553 23.4475 106.022 23.206 105.682 23.502L101.71 26.9605C101.509 27.1353 101.21 27.1325 101.012 26.9539L97.4792 23.7594C97.2866 23.5853 96.9955 23.5778 96.7943 23.7421L89.969 29.3159C89.7432 29.5005 89.4102 29.4656 89.2274 29.2386L85.504 24.6159C85.3067 24.3714 84.9405 24.3531 84.72 24.5771L80.0058 29.3669C79.8408 29.5347 79.5843 29.5723 79.3779 29.4588L73.6965 26.3343Z" fill="#FDD147"/>
<path fill-rule="evenodd" clip-rule="evenodd" d="M107.08 41.233H72.3932C71.8128 41.233 71.3422 41.7036 71.3422 42.2842V64.3572C71.3422 64.9378 71.8128 65.4084 72.3932 65.4084H107.08C107.66 65.4084 108.131 64.9378 108.131 64.3572V42.2842C108.131 41.7036 107.66 41.233 107.08 41.233ZM72.3932 40.182C71.2322 40.182 70.291 41.123 70.291 42.2842V64.3572C70.291 65.5181 71.2322 66.4593 72.3932 66.4593H107.08C108.241 66.4593 109.182 65.5181 109.182 64.3572V42.2842C109.182 41.123 108.241 40.182 107.08 40.182H72.3932Z" fill="#BBAD81"/>
<path d="M72.9175 50.6928C72.9175 50.1122 73.3881 49.6416 73.9687 49.6416H78.173C78.7536 49.6416 79.2242 50.1122 79.2242 50.6928V61.7294C79.2242 62.3098 78.7536 62.7804 78.173 62.7804H73.9687C73.3881 62.7804 72.9175 62.3098 72.9175 61.7294V50.6928Z" fill="#FDD147"/>
<path d="M81.8516 48.065C81.8516 47.4846 82.3222 47.014 82.9028 47.014H87.1071C87.6877 47.014 88.1583 47.4846 88.1583 48.065V61.7294C88.1583 62.31 87.6877 62.7806 87.1071 62.7806H82.9028C82.3222 62.7806 81.8516 62.31 81.8516 61.7294V48.065Z" fill="#FDD147"/>
<path d="M90.7856 54.3718C90.7856 53.7912 91.2562 53.3206 91.8368 53.3206H96.0412C96.6217 53.3206 97.0923 53.7912 97.0923 54.3718V61.7294C97.0923 62.3098 96.6217 62.7804 96.0412 62.7804H91.8368C91.2562 62.7804 90.7856 62.3098 90.7856 61.7294V54.3718Z" fill="#FDD147"/>
<path d="M100.247 47.0139C100.247 46.4335 100.717 45.9629 101.298 45.9629H105.502C106.083 45.9629 106.553 46.4335 106.553 47.0139V61.7294C106.553 62.3098 106.083 62.7804 105.502 62.7804H101.298C100.717 62.7804 100.247 62.3098 100.247 61.7294V47.0139Z" fill="#FDD147"/>
<path d="M6.78369 65.8136H17.1074V68.3945H6.78369V65.8136Z" fill="#BBAD81"/>
<path d="M26.1416 65.8136H36.4653V68.3945H26.1416V65.8136Z" fill="#BBAD81"/>
<path d="M45.4985 65.8136H57.1127V68.3945H45.4985V65.8136Z" fill="#BBAD81"/>
<path fill-rule="evenodd" clip-rule="evenodd" d="M17.262 30.4006L10.2886 25.8282C10.289 25.8275 10.2895 25.8268 10.29 25.8261C11.7816 23.5517 13.6254 21.5413 15.7439 19.8657C16.8892 18.9599 18.115 18.152 19.4086 17.453C23.0964 15.4613 27.2219 14.4183 31.4131 14.4181C35.6046 14.4179 39.73 15.4604 43.4181 17.4521C44.712 18.1509 45.9377 18.9587 47.083 19.8643C49.2025 21.5401 51.0467 23.5512 52.5391 25.8263L45.5659 30.3994C45.5645 30.3973 45.5631 30.3952 45.5617 30.3931C44.0223 28.0481 41.9239 26.1226 39.4557 24.7894C36.985 23.4553 34.2213 22.7567 31.4136 22.757C28.6059 22.7572 25.8421 23.4557 23.3716 24.7901C20.9014 26.1247 18.8016 28.0527 17.262 30.4006Z" fill="#FDD147"/>
<path fill-rule="evenodd" clip-rule="evenodd" d="M16.3607 31.9467C14.6805 35.217 14.1111 38.9458 14.7387 42.5686C15.3661 46.1914 17.1566 49.5114 19.8389 52.0261L14.1355 58.1096C14.1343 58.1084 14.1329 58.1072 14.1315 58.1058C12.1423 56.2402 10.4818 54.0777 9.19984 51.7104C7.9027 49.3155 6.99308 46.7109 6.52201 43.9919C6.05117 41.2731 6.03175 38.5143 6.4476 35.8224C6.859 33.1603 7.69606 30.5634 8.94336 28.136L16.3607 31.9467Z" fill="#FDD147"/>
<path fill-rule="evenodd" clip-rule="evenodd" d="M42.6655 52.3207C45.4627 49.8307 47.3552 46.4829 48.046 42.8021C48.7375 39.1189 48.1866 35.3101 46.48 31.9737L53.9041 28.1761C55.1472 30.6066 55.9796 33.2049 56.3861 35.8673C56.8127 38.661 56.7703 41.5253 56.2419 44.3405C55.7135 47.1559 54.714 49.8406 53.3036 52.2895C51.9606 54.621 50.2446 56.7386 48.2075 58.5518C48.2054 58.5534 48.2035 58.5553 48.2016 58.5569L42.6597 52.3258C42.6618 52.3239 42.6637 52.3223 42.6655 52.3207Z" fill="#FDD147"/>
<path d="M24.5015 55.3697C24.5015 55.076 24.7395 54.8378 25.0331 54.8378H37.7973C38.0909 54.8378 38.3292 55.076 38.3292 55.3697V58.5607C38.3292 58.8544 38.0909 59.0926 37.7973 59.0926H25.0331C24.7395 59.0926 24.5015 58.8544 24.5015 58.5607V55.3697Z" fill="#BBAD81"/>
<path d="M30.2643 43.6907C32.5995 43.9531 34.7051 42.2728 34.9675 39.9378C35.0709 39.0179 34.8727 38.1336 34.4517 37.3833L39.2448 29.8523C39.2937 29.7755 39.2883 29.6763 39.2317 29.6051C39.1557 29.5099 39.0152 29.498 38.9242 29.5787L32.2566 35.4866C31.9286 35.3617 31.5796 35.2756 31.2146 35.2346C28.8796 34.9723 26.7739 36.6525 26.5114 38.9875C26.249 41.3227 27.9292 43.4284 30.2643 43.6907Z" fill="#BBAD81"/>
</svg>
