<svg width="79" height="131" viewBox="0 0 79 131" fill="none" xmlns="http://www.w3.org/2000/svg">
<path d="M76.8413 108.06L82.8294 130.923H116.08C117.441 130.923 120.497 131.87 118.258 127.113C117.172 124.807 112.77 111.78 110.865 105.61L76.8413 108.06Z" fill="#33353D"/>
<path d="M185.698 6.44177L164.3 106.298C163.773 108.754 161.604 110.508 159.093 110.508H5.32789C1.93212 110.508 -0.596418 107.373 0.122944 104.054L21.7667 4.19753C22.2977 1.7478 24.465 0 26.9717 0H180.49C183.88 0 186.409 3.12635 185.698 6.44177Z" fill="#33353D"/>
<path d="M159.092 110.51H5.41853C1.99353 110.51 -0.540993 107.324 0.22897 103.986L2.61767 93.634L166.956 93.9062L164.3 106.3C163.773 108.755 161.604 110.51 159.092 110.51Z" fill="#4E5159"/>
<path d="M170.893 9.48272L32.6305 7.9233C31.1138 7.90621 29.7941 8.95773 29.4718 10.4399L13.1753 85.404C12.7422 87.3957 14.2596 89.2782 16.2979 89.2782H154.573C156.07 89.2782 157.368 88.2375 157.692 86.7748L173.977 13.3701C174.417 11.3892 172.922 9.50563 170.893 9.48272Z" fill="#4E5159"/>
<path d="M29.4723 10.4399L13.1758 85.404C12.7427 87.3957 14.2601 89.2782 16.2983 89.2782H59.9664L77.3865 8.42812L32.631 7.9233C31.1143 7.90621 29.7946 8.95773 29.4723 10.4399Z" fill="#3E4047"/>
<path d="M170.893 9.48272L32.6311 7.9233C31.1145 7.90621 29.7947 8.95773 29.4725 10.4399L27.3633 20.1425H172.474L173.977 13.3701C174.416 11.3892 172.922 9.50563 170.893 9.48272Z" fill="#3E4047"/>
<path d="M50.7121 14.6971C50.7121 15.4488 50.1028 16.0581 49.3512 16.0581C48.5995 16.0581 47.9902 15.4488 47.9902 14.6971C47.9902 13.9456 48.5995 13.3362 49.3512 13.3362C50.1028 13.3362 50.7121 13.9456 50.7121 14.6971Z" fill="#4E5159"/>
<path d="M43.6345 14.6971C43.6345 15.4488 43.025 16.0581 42.2735 16.0581C41.5219 16.0581 40.9126 15.4488 40.9126 14.6971C40.9126 13.9456 41.5219 13.3362 42.2735 13.3362C43.025 13.3362 43.6345 13.9456 43.6345 14.6971Z" fill="#4E5159"/>
<path d="M37.1032 14.6974C37.1032 15.449 36.4938 16.0583 35.7423 16.0583C34.9906 16.0583 34.3813 15.449 34.3813 14.6974C34.3813 13.9459 34.9906 13.3364 35.7423 13.3364C36.4938 13.3364 37.1032 13.9459 37.1032 14.6974Z" fill="#4E5159"/>
<path d="M77.3867 30.2126C77.3867 29.3106 78.1179 28.5795 79.0198 28.5795H152.511C153.412 28.5795 154.144 29.3106 154.144 30.2126C154.144 31.1147 153.412 31.8458 152.511 31.8458H79.0198C78.1179 31.8458 77.3867 31.1147 77.3867 30.2126Z" fill="#33353D"/>
<path d="M76.2988 40.0113C76.2988 39.1093 77.03 38.3782 77.9319 38.3782H151.422C152.325 38.3782 153.057 39.1093 153.057 40.0113C153.057 40.9132 152.325 41.6444 151.422 41.6444H77.9319C77.03 41.6444 76.2988 40.9132 76.2988 40.0113Z" fill="#33353D"/>
<path d="M75.209 49.8112C75.209 48.9093 75.9401 48.1781 76.8421 48.1781H150.333C151.235 48.1781 151.967 48.9093 151.967 49.8112C151.967 50.7131 151.235 51.4443 150.333 51.4443H76.8421C75.9401 51.4443 75.209 50.7131 75.209 49.8112Z" fill="#33353D"/>
<path d="M74.1201 59.6086C74.1201 58.7065 74.8513 57.9753 75.7532 57.9753H149.244C150.146 57.9753 150.876 58.7065 150.876 59.6086C150.876 60.5105 150.146 61.2417 149.244 61.2417H75.7532C74.8513 61.2417 74.1201 60.5105 74.1201 59.6086Z" fill="#33353D"/>
<path d="M73.0322 69.4075C73.0322 68.5056 73.7634 67.7744 74.6653 67.7744H148.157C149.058 67.7744 149.789 68.5056 149.789 69.4075C149.789 70.3094 149.058 71.0406 148.157 71.0406H74.6653C73.7634 71.0406 73.0322 70.3094 73.0322 69.4075Z" fill="#33353D"/>
<path d="M71.9429 79.2061C71.9429 78.3042 72.6742 77.573 73.5761 77.573H147.066C147.969 77.573 148.7 78.3042 148.7 79.2061C148.7 80.108 147.969 80.8392 147.066 80.8392H73.5761C72.6742 80.8392 71.9429 80.108 71.9429 79.2061Z" fill="#33353D"/>
<path d="M31.3877 30.7566L32.2043 27.4902H61.3284L60.2396 30.7566H31.3877Z" fill="#855AFF"/>
<path d="M30.0259 37.56L30.8425 34.2938H59.9666L58.8778 37.56H30.0259Z" fill="#855AFF"/>
<path d="M28.936 44.6383L29.7378 41.3719H58.3324L57.2635 44.6383H28.936Z" fill="#855AFF"/>
<path d="M24.311 62.6025L25.1275 59.3362H54.2516L53.163 62.6025H24.311Z" fill="#855AFF"/>
<path d="M22.9492 69.6789L23.6617 66.4127H49.0793L48.1291 69.6789H22.9492Z" fill="#855AFF"/>
<path d="M21.8599 76.7564L22.4833 73.49H44.7235L43.8922 76.7564H21.8599Z" fill="#4E5159"/>
</svg>
