<svg width="221" height="129" viewBox="0 0 221 129" fill="none" xmlns="http://www.w3.org/2000/svg">
<path d="M211.06 81.2809H73.9768C69.5291 81.2809 65.8779 84.932 65.8779 89.3797V116.265C65.8779 120.713 69.5291 124.364 73.9768 124.364H211.06C215.507 124.364 219.159 120.713 219.159 116.265V89.3797C219.159 84.932 215.507 81.2809 211.06 81.2809Z" fill="#33353D"/>
<path d="M211.724 80.6168H74.6408C70.1931 80.6168 66.542 84.2679 66.542 88.7157V115.601C66.542 120.049 70.1931 123.7 74.6408 123.7H211.724C216.172 123.7 219.823 120.049 219.823 115.601V88.7157C219.823 84.2679 216.172 80.6168 211.724 80.6168Z" fill="#4E5159"/>
<path d="M211.724 124.033H74.6412C69.9944 124.033 66.2104 120.249 66.2104 115.602V88.7162C66.2104 84.0694 69.9944 80.2854 74.6412 80.2854H211.724C216.371 80.2854 220.155 84.0694 220.155 88.7162V115.602C220.155 120.249 216.371 124.033 211.724 124.033ZM74.6412 80.9493C70.3263 80.9493 66.8743 84.4677 66.8743 88.7162V115.602C66.8743 119.917 70.3927 123.369 74.6412 123.369H211.724C216.04 123.369 219.491 119.85 219.491 115.602V88.7162C219.491 84.4012 215.973 80.9493 211.724 80.9493H74.6412Z" fill="#33353D"/>
<path d="M199.907 95.1556H123.3C122.902 95.1556 122.636 94.8901 122.636 94.4917C122.636 94.0934 122.902 93.828 123.3 93.828H199.907C200.306 93.828 200.571 94.0934 200.571 94.4917C200.571 94.8901 200.239 95.1556 199.907 95.1556Z" fill="#808594"/>
<path d="M187.626 102.857H123.3C122.902 102.857 122.636 102.591 122.636 102.193C122.636 101.795 122.902 101.529 123.3 101.529H187.626C188.025 101.529 188.29 101.795 188.29 102.193C188.29 102.591 187.958 102.857 187.626 102.857Z" fill="#808594"/>
<path d="M174.681 110.491H123.3C122.902 110.491 122.636 110.226 122.636 109.827C122.636 109.429 122.902 109.163 123.3 109.163H174.681C175.08 109.163 175.345 109.429 175.345 109.827C175.345 110.226 175.013 110.491 174.681 110.491Z" fill="#808594"/>
<path d="M97.8095 114.208C104.446 114.208 109.825 108.828 109.825 102.192C109.825 95.5564 104.446 90.1769 97.8095 90.1769C91.1735 90.1769 85.7939 95.5564 85.7939 102.192C85.7939 108.828 91.1735 114.208 97.8095 114.208Z" fill="#489A4D"/>
<path d="M95.0867 107.902C94.8211 107.902 94.5557 107.835 94.3565 107.636L90.307 103.587C89.9087 103.189 89.9087 102.591 90.307 102.193C90.7053 101.795 91.3029 101.795 91.7012 102.193L95.0867 105.579L103.916 96.7494C104.314 96.3511 104.912 96.3511 105.31 96.7494C105.708 97.1477 105.708 97.7451 105.31 98.1434L95.817 107.636C95.5514 107.835 95.3523 107.902 95.0867 107.902Z" fill="white"/>
<path d="M0.617245 102.312C0.617245 106.175 1.43468 109.848 2.9297 113.14C4.45423 116.513 6.6579 119.506 9.37751 121.954C9.81265 122.335 10.2478 122.716 10.7109 123.069C15.1991 126.606 20.8574 128.7 27.0068 128.7C35.6024 128.7 43.2204 124.593 48.0629 118.254C51.4368 113.82 53.4229 108.297 53.4229 102.312C53.4229 87.7305 41.5886 75.8965 27.0068 75.8965C12.425 75.8965 0.617245 87.7305 0.617245 102.312Z" fill="#4E5159"/>
<path d="M27.0323 129C35.4398 129 43.193 125.137 48.2795 118.444C51.8165 113.765 53.6938 108.216 53.6938 102.339C53.6938 87.6215 41.7229 75.6515 27.0059 75.6515C12.2873 75.6515 0.317917 87.6215 0.317917 102.339C0.317917 106.148 1.10737 109.848 2.65677 113.276C4.18131 116.676 6.38498 119.696 9.18696 122.199C9.6221 122.58 10.0837 122.961 10.5468 123.341C15.3084 127.04 20.9932 129 27.0323 129ZM27.0323 76.1956C41.4509 76.1956 53.1764 87.9208 53.1764 102.339C53.1764 108.107 51.3534 113.548 47.8723 118.118C42.8931 124.702 35.303 128.456 27.0323 128.456C21.13 128.456 15.5524 126.524 10.9011 122.879C10.438 122.525 10.0029 122.144 9.56772 121.763C6.82013 119.315 4.67085 116.377 3.17429 113.031C1.6513 109.657 0.889801 106.039 0.889801 102.312C0.889801 87.9208 12.6137 76.1956 27.0323 76.1956Z" fill="#33353D"/>
<path d="M2.96017 113.14C4.48315 116.513 6.68682 119.506 9.40799 121.954C9.84313 122.335 10.2783 122.716 10.7398 123.07C15.2295 126.606 20.8879 128.702 27.0358 128.702C35.6329 128.702 43.2493 124.593 48.0918 118.254V113.031C48.0918 110.637 45.2898 107.781 40.4473 107.563C38.626 107.481 36.5311 106.992 34.4906 106.475C34.3274 106.42 34.1363 106.393 33.9731 106.339C30.7624 105.495 27.7708 104.57 26.1391 104.843C24.9689 105.033 23.1459 105.278 20.9687 105.577C20.7511 105.604 20.5335 105.632 20.2896 105.659C17.5684 106.012 14.3857 106.42 11.3117 106.883C6.33405 107.59 4.23917 110.365 2.96017 113.14Z" fill="#514984"/>
<path d="M20.258 105.631L26.8425 112.351C26.8969 112.405 26.9513 112.432 27.0322 112.432C27.1145 112.432 27.1689 112.405 27.2233 112.351L30.4868 109.114L33.48 111.671C33.5608 111.725 33.6696 111.752 33.7519 111.725C33.8343 111.698 33.9151 111.589 33.9151 111.508L34.4326 106.475C34.2694 106.42 34.0783 106.393 33.9151 106.339L33.4256 110.936L30.65 108.542C30.5412 108.461 30.3781 108.461 30.2973 108.542L27.0322 111.78L20.9387 105.55C20.7211 105.577 20.5035 105.604 20.258 105.631Z" fill="#3B336C"/>
<path d="M31.604 123.505C31.7672 123.505 31.876 123.396 31.876 123.233V111.644C31.876 111.481 31.7672 111.372 31.604 111.372C31.4408 111.372 31.3321 111.481 31.3321 111.644V123.233C31.3321 123.396 31.4408 123.505 31.604 123.505Z" fill="#3B336C"/>
<path d="M30.1636 112.215C29.9383 112.215 29.7549 112.032 29.7549 111.806C29.7549 111.581 29.9383 111.398 30.1636 111.398C30.389 111.398 30.5708 111.581 30.5708 111.806C30.5708 112.032 30.389 112.215 30.1636 112.215Z" fill="#3B336C"/>
<path d="M30.1636 115.125C29.9383 115.125 29.7549 114.943 29.7549 114.717C29.7549 114.492 29.9383 114.309 30.1636 114.309C30.389 114.309 30.5708 114.492 30.5708 114.717C30.5708 114.943 30.389 115.125 30.1636 115.125Z" fill="#3B336C"/>
<path d="M9.40399 118.826V121.954C9.83913 122.335 10.2743 122.716 10.7358 123.07C10.2463 121.845 9.75677 119.805 9.5392 118.771C9.51278 118.744 9.40399 118.744 9.40399 118.826Z" fill="#3B336C"/>
<path d="M23.5806 93.4966C23.7982 93.6871 23.907 93.9591 23.907 94.2584V104.678C23.907 104.977 24.0701 105.276 24.3141 105.439L28.4495 108.214C29.2934 108.786 30.4356 108.677 31.1707 107.942L32.7216 106.392C32.9112 106.201 33.02 105.929 32.9936 105.684L32.8848 101.413C32.8848 101.386 32.8848 101.359 32.8848 101.332C32.9112 100.978 33.1024 100.651 33.4007 100.434C36.7746 98.3118 36.5835 95.4553 36.5835 94.4487V88.0012C36.5835 87.6203 36.2027 87.3212 35.822 87.43C32.1497 88.5453 28.0144 86.9131 26.409 86.1785C26.0827 86.0425 25.7299 86.2602 25.7299 86.5866C25.6755 87.9197 25.4035 89.7696 25.2403 90.8306C25.1844 91.2115 24.7493 91.4018 24.4229 91.2115C23.7702 90.8306 22.8455 90.4497 22.5736 91.2115C22.328 92.1091 23.1175 93.0341 23.5806 93.4966Z" fill="#F7A197"/>
<path d="M36.1462 91.3749C36.2286 91.3749 36.283 91.3476 36.3374 91.2932C36.4461 91.1844 36.4461 91.0212 36.3374 90.9124C35.8199 90.4227 34.5688 89.6881 33.5898 90.5043C33.481 90.6131 33.453 90.7763 33.5618 90.8852C33.6706 90.994 33.8353 91.0212 33.9441 90.9124C34.7864 90.1778 35.9022 91.2388 35.9566 91.2932C36.011 91.3476 36.0918 91.3749 36.1462 91.3749Z" fill="#192A2C"/>
<path d="M28.639 91.3756C28.6934 91.3756 28.7478 91.3484 28.8022 91.3212C30.0532 90.369 30.7883 90.9675 30.7883 90.9675C30.8971 91.0763 31.0867 91.0491 31.1691 90.9403C31.2499 90.8315 31.2499 90.641 31.1411 90.5594C31.0867 90.5322 30.0532 89.689 28.4759 90.9131C28.3671 90.9947 28.3391 91.1852 28.4215 91.294C28.4759 91.3212 28.5567 91.3756 28.639 91.3756Z" fill="#192A2C"/>
<path d="M22.6282 91.2389C22.9002 90.4773 23.8249 90.831 24.4776 91.2389C24.8039 91.4294 25.2391 91.2389 25.2935 90.8582C25.4566 89.7972 25.7286 87.9201 25.783 86.6142C25.811 86.2605 26.1653 86.0429 26.4637 86.2061C28.041 86.9407 32.1764 88.5729 35.8766 87.4576C36.2574 87.3488 36.6381 87.6479 36.6381 88.0288V92.4904C37.9715 92.5448 37.9436 88.7361 37.8892 87.4576C37.8892 87.2127 37.9979 86.9679 38.1891 86.8045C40.2296 84.9547 41.2366 79.813 33.6186 81.4182C33.3731 81.4726 33.1291 81.4454 32.8835 81.3636C26.6268 78.9969 24.5055 82.0982 23.9336 83.2952C23.8249 83.5401 23.6073 83.7577 23.3618 83.8666C19.4175 85.5532 22.2195 95.2382 23.9336 96.8976V94.286C23.9336 94.0139 23.8249 93.7419 23.6073 93.5242C23.1178 93.0345 22.3283 92.1095 22.6282 91.2389Z" fill="#192A2C"/>
<path d="M23.9056 99.075V104.652C23.9056 104.951 24.0687 105.25 24.3127 105.414L28.4481 108.188C29.2919 108.76 30.4342 108.651 31.1693 107.916L32.7202 106.366C32.9098 106.175 33.0186 105.903 32.9922 105.658L32.8834 101.387C32.8834 101.36 32.8834 101.333 32.8834 101.306C31.4676 101.224 26.7883 100.87 23.9056 99.075Z" fill="#F7A197"/>
<path d="M33.0176 105.658C33.0176 105.658 30.7051 105.822 27.4416 99.4014C27.3592 99.2109 27.5504 99.0205 27.7136 99.1565C28.5294 99.7278 30.1348 100.626 32.9088 101.415L33.0176 105.658Z" fill="#ED8B7F"/>
<path d="M145.5 5.62988H8.41674C3.96901 5.62988 0.317871 9.281 0.317871 13.7287V40.6142C0.317871 45.062 3.96901 48.7131 8.41674 48.7131H145.5C149.947 48.7131 153.599 45.062 153.599 40.6142V13.7287C153.599 9.281 149.947 5.62988 145.5 5.62988Z" fill="#33353D"/>
<path d="M146.164 4.96594H9.08076C4.63306 4.96594 0.981934 8.61707 0.981934 13.0648V39.9505C0.981934 44.3982 4.63306 48.0493 9.08076 48.0493H146.164C150.612 48.0493 154.262 44.3982 154.262 39.9505V13.0648C154.262 8.61707 150.612 4.96594 146.164 4.96594Z" fill="#4E5159"/>
<path d="M146.164 48.3816H9.08115C4.43429 48.3816 0.650391 44.5978 0.650391 39.951V13.0653C0.650391 8.41852 4.43429 4.63452 9.08115 4.63452H146.164C150.811 4.63452 154.595 8.41852 154.595 13.0653V39.951C154.595 44.5978 150.811 48.3816 146.164 48.3816ZM9.08115 5.29842C4.76622 5.29842 1.31424 8.81682 1.31424 13.0653V39.951C1.31424 44.2658 4.8326 47.7179 9.08115 47.7179H146.164C150.48 47.7179 153.931 44.1995 153.931 39.951V13.0653C153.931 8.75031 150.413 5.29842 146.164 5.29842H9.08115Z" fill="#33353D"/>
<path d="M134.348 19.5046H57.7406C57.3423 19.5046 57.0767 19.2391 57.0767 18.8407C57.0767 18.4424 57.3423 18.177 57.7406 18.177H134.348C134.746 18.177 135.012 18.4424 135.012 18.8407C135.012 19.2391 134.68 19.5046 134.348 19.5046Z" fill="#808594"/>
<path d="M122.067 27.2058H57.7406C57.3423 27.2058 57.0767 26.9402 57.0767 26.5419C57.0767 26.1436 57.3423 25.8782 57.7406 25.8782H122.067C122.465 25.8782 122.731 26.1436 122.731 26.5419C122.731 26.9402 122.399 27.2058 122.067 27.2058Z" fill="#808594"/>
<path d="M109.122 34.8405H57.7406C57.3423 34.8405 57.0767 34.5749 57.0767 34.1766C57.0767 33.7783 57.3423 33.5128 57.7406 33.5128H109.122C109.52 33.5128 109.786 33.7783 109.786 34.1766C109.786 34.5749 109.454 34.8405 109.122 34.8405Z" fill="#808594"/>
<path d="M32.2495 38.5569C38.8855 38.5569 44.265 33.1773 44.265 26.5413C44.265 19.9054 38.8855 14.5259 32.2495 14.5259C25.6134 14.5259 20.2339 19.9054 20.2339 26.5413C20.2339 33.1773 25.6134 38.5569 32.2495 38.5569Z" fill="#489A4D"/>
<path d="M29.5276 32.2508C29.262 32.2508 28.9966 32.1845 28.7974 31.9853L24.7479 27.9358C24.3496 27.5375 24.3496 26.9401 24.7479 26.5418C25.1463 26.1435 25.7438 26.1435 26.1421 26.5418L29.5276 29.9274L38.2904 21.0319C38.6887 20.6336 39.2861 20.6336 39.6844 21.0319C40.0827 21.4302 40.0827 22.0277 39.6844 22.426L30.1915 31.9189C29.9923 32.1845 29.7932 32.2508 29.5276 32.2508Z" fill="white"/>
<path d="M219.393 26.6632C219.393 31.2846 218.222 35.6291 216.134 39.3987C213.984 43.3174 210.874 46.6184 207.105 49.0036C206.401 49.4508 205.657 49.8768 204.911 50.26C201.312 52.0916 197.245 53.1352 192.921 53.1352C188.449 53.1352 184.253 52.0278 180.57 50.0684C179.887 49.7063 179.227 49.3231 178.588 48.9184C178.268 48.7053 177.928 48.4924 177.629 48.2582C177.333 48.0452 177.054 47.8323 176.758 47.6192C174.734 46.0647 172.945 44.2118 171.454 42.1459C168.302 37.8014 166.471 32.456 166.471 26.6632C166.471 12.0536 178.312 0.191284 192.942 0.191284C207.573 0.191284 219.393 12.0536 219.393 26.6632Z" fill="#4E5159"/>
<path d="M192.943 53.3484C188.598 53.3484 184.296 52.2836 180.484 50.2603C179.802 49.8984 179.143 49.515 178.483 49.0891C178.12 48.8549 177.8 48.6418 177.502 48.4289C177.183 48.1945 176.885 47.9816 176.63 47.79C174.585 46.214 172.796 44.3611 171.284 42.2742C167.983 37.7166 166.258 32.3285 166.258 26.6849C166.258 11.9688 178.226 0 192.943 0C207.659 0 219.628 11.9688 219.628 26.6849C219.628 31.1784 218.498 35.6294 216.327 39.5269C214.176 43.4455 211.023 46.789 207.233 49.1955C206.509 49.6428 205.764 50.0687 205.018 50.4521C201.27 52.3688 197.203 53.3484 192.943 53.3484ZM192.943 0.404679C178.461 0.404679 166.684 12.1817 166.684 26.6636C166.684 32.222 168.387 37.5249 171.646 42.0185C173.115 44.063 174.883 45.8945 176.907 47.4492C177.162 47.6408 177.438 47.8539 177.758 48.0881C178.057 48.3011 178.355 48.514 178.717 48.7482C179.356 49.1529 180.016 49.5576 180.675 49.8984C184.424 51.8789 188.662 52.9225 192.943 52.9225C197.138 52.9225 201.142 51.9641 204.847 50.0687C205.593 49.6854 206.317 49.2807 207.02 48.8336C210.747 46.4695 213.834 43.1685 215.965 39.2925C218.072 35.4591 219.202 31.072 219.202 26.6636C219.18 12.1817 207.404 0.404679 192.943 0.404679Z" fill="#33353D"/>
<path d="M216.135 39.3991C213.984 43.3177 210.874 46.6186 207.106 49.0038C206.402 49.4511 205.657 49.8771 204.911 50.2604C201.312 52.0919 197.245 53.1355 192.922 53.1355C188.449 53.1355 184.253 52.028 180.57 50.0687C179.888 49.7067 179.227 49.3233 178.589 48.9187C178.27 48.7058 177.928 48.4927 177.631 48.2585C177.333 48.0456 177.056 47.8325 176.758 47.6196C176.822 43.2325 177.013 34.9481 177.651 33.4998C178.077 32.5202 179.44 31.3276 181.187 30.3266C182.955 29.3043 185.085 28.4738 187.064 28.2182C187.277 28.1969 187.512 28.1756 187.747 28.1543C187.896 28.133 188.023 28.133 188.172 28.1117C191.239 27.8775 196.052 28.0479 200.864 28.8145C201.057 28.8358 201.27 28.8784 201.461 28.9209C203.144 29.1979 204.826 29.56 206.423 30.0071C210.279 31.0719 212.706 33.3082 214.24 35.6082C215.112 36.9073 215.709 38.2491 216.135 39.3991Z" fill="#4167F3"/>
<path d="M180.57 50.0692C179.889 49.7071 179.228 49.3238 178.59 48.9192C178.59 47.1303 178.568 44.3191 178.568 41.4014C178.61 41.5506 179.569 46.9811 180.57 50.0692Z" fill="#3153D0"/>
<path d="M207.127 49.0259C206.423 49.4732 205.679 49.899 204.933 50.2824C205.828 47.6203 206.636 42.3386 206.636 42.3386C206.935 43.0841 207.064 47.173 207.127 49.0259Z" fill="#3153D0"/>
<path d="M201.442 28.9006L191.41 36.0137C191.368 36.035 191.326 36.0563 191.283 36.0563C191.261 36.0563 191.241 36.0563 191.241 36.0563C191.177 36.035 191.133 35.9924 191.091 35.9499L189.749 33.4368L187.769 35.0979C187.705 35.1618 187.62 35.1618 187.534 35.1192C187.449 35.0766 187.407 35.0128 187.407 34.9276L187.705 28.1551C187.854 28.1338 187.982 28.1338 188.131 28.1125L187.854 34.459L189.665 32.9469C189.707 32.9044 189.77 32.8831 189.834 32.9044C189.898 32.9256 189.941 32.9682 189.983 33.0108L191.326 35.5452L200.803 28.8367C201.037 28.8367 201.25 28.8793 201.442 28.9006Z" fill="#3153D0"/>
<path d="M189.855 41.8486C189.728 41.8486 189.643 41.7634 189.643 41.6357V38.5689C189.643 38.4411 189.728 38.356 189.855 38.356C189.983 38.356 190.068 38.4411 190.068 38.5689V41.6357C190.068 41.7421 189.963 41.8486 189.855 41.8486Z" fill="#3153D0"/>
<path d="M189.855 37.1634C190.031 37.1634 190.174 37.0203 190.174 36.8439C190.174 36.6675 190.031 36.5244 189.855 36.5244C189.678 36.5244 189.535 36.6675 189.535 36.8439C189.535 37.0203 189.678 37.1634 189.855 37.1634Z" fill="#3153D0"/>
<path d="M189.855 35.5238C190.031 35.5238 190.174 35.3806 190.174 35.2043C190.174 35.0279 190.031 34.8849 189.855 34.8849C189.678 34.8849 189.535 35.0279 189.535 35.2043C189.535 35.3806 189.678 35.5238 189.855 35.5238Z" fill="#3153D0"/>
<path d="M214.218 35.5863C212.662 33.3076 210.257 31.0713 206.401 29.9852C199.501 28.0685 190.983 27.7064 187.044 28.1963C185.062 28.4519 182.933 29.2824 181.164 30.3047C180.888 22.8934 185.062 17.8461 186.787 16.0785C187.149 15.7164 187.107 15.1201 186.723 14.8007C184.445 12.9052 184.529 9.96632 184.594 7.66615C184.658 5.11064 188.065 2.25691 191.047 2.17159C194.027 2.08643 197.627 5.06806 197.627 5.06806C200.056 5.06806 202.312 7.36808 203.357 9.19954C204.399 11.0312 205.358 15.6099 206.188 18.7193C207.019 21.8285 211.854 25.8324 213.494 29.2186C214.622 31.5824 214.431 34.202 214.218 35.5863Z" fill="#0C1E21"/>
<path d="M198.374 17.6542C198.267 17.7819 198.203 17.9309 198.203 18.1014V27.9405C198.203 28.2599 198.032 28.5368 197.777 28.7071L190.451 33.0091C190.28 33.1156 190.068 32.9878 190.089 32.7962L190.131 32.3489L190.792 24.5755C190.813 24.3413 190.643 24.1497 190.408 24.1284C187.107 23.8515 186.255 20.1884 186.255 19.5921C186.255 18.9532 186.277 15.8225 186.255 14.417C186.234 13.0114 186.255 10.8604 187.214 10.0086C188.173 9.15669 189.62 9.56137 190.324 10.5198C191.026 11.478 191.771 12.3299 192.538 13.2457C193.305 14.1614 195.668 14.3106 196.542 13.9911C197.415 13.6716 199.331 12.1809 200.184 13.5438C200.929 14.6512 198.969 16.9727 198.374 17.6542Z" fill="#F7A197"/>
<path d="M195.691 22.0412L190.134 32.3488L190.794 24.5754C190.794 24.5754 193.86 23.2763 195.478 21.892C195.607 21.7642 195.756 21.892 195.691 22.0412Z" fill="#ED8B7F"/>
<path d="M186.702 14.2267C186.682 14.2267 186.639 14.2053 186.617 14.184C186.575 14.1414 186.575 14.0775 186.617 14.0349C186.639 14.0349 187.725 13.034 188.64 13.8433C188.684 13.8859 188.684 13.9498 188.64 13.9924C188.598 14.0349 188.535 14.0349 188.491 13.9924C187.725 13.3109 186.788 14.1627 186.746 14.184C186.746 14.2053 186.724 14.2267 186.702 14.2267Z" fill="#0C1E21"/>
<path d="M192.836 14.2262C192.814 14.2262 192.794 14.2262 192.772 14.2049C191.58 13.353 190.834 14.0131 190.813 14.0344C190.771 14.077 190.707 14.077 190.663 14.0344C190.621 13.9918 190.621 13.928 190.663 13.8854C190.663 13.8854 191.558 13.0549 192.9 14.0344C192.943 14.077 192.963 14.141 192.921 14.1836C192.9 14.2049 192.879 14.2262 192.836 14.2262Z" fill="#0C1E21"/>
<path d="M180.442 24.3207C179.824 25.4922 178.652 27.6219 178.588 30.6459C178.546 32.0941 178.546 36.886 178.568 41.4221C178.568 44.3397 178.588 47.1509 178.588 48.9399C178.27 48.7268 177.928 48.5139 177.631 48.2796C175.246 46.5972 173.158 44.5315 171.454 42.1462L173.031 30.1348C173.031 30.1348 171.561 29.7088 171.454 27.7283C171.348 25.7689 171.326 23.5115 170.751 21.9355C170.176 20.3596 170.262 19.9549 170.582 19.7207C170.879 19.5291 171.519 19.9336 172.05 21.7865C172.05 21.8078 172.114 21.8078 172.094 21.7652C171.732 19.2308 171.901 17.6761 172.307 17.5484C172.733 17.4207 173.69 18.4642 173.861 21.2541C173.67 16.9095 174.201 16.5687 174.585 16.5048C174.947 16.441 175.671 17.7187 175.926 20.317C175.926 20.3808 176.012 20.3808 176.012 20.317C176.31 16.9308 176.927 17.0586 177.183 17.0586C177.46 17.0586 177.715 17.3781 177.822 19.2095C177.908 20.4873 178.057 22.3189 178.142 23.2773C178.163 23.5328 178.483 23.6605 178.652 23.4689C179.376 22.7662 180.739 21.5096 181.123 21.7226C181.676 21.9994 181.059 23.1494 180.442 24.3207Z" fill="#F7A197"/>
<path d="M174.5 29.4742C174.458 29.4742 174.414 29.4314 174.394 29.3889C174.287 28.8777 174.201 28.3666 174.223 27.8129C174.245 27.3871 174.351 26.7908 174.756 26.3009C174.969 26.0666 175.246 25.875 175.501 25.7046C176.183 25.2574 176.864 24.8101 177.588 24.4054C176.055 24.5759 174.478 24.7675 172.988 25.2361C172.924 25.2574 172.882 25.2148 172.86 25.1722C172.839 25.1082 172.882 25.0656 172.924 25.0443C174.627 24.5119 176.418 24.3203 178.143 24.1287C178.185 24.1287 178.248 24.15 178.248 24.2138C178.248 24.2777 178.248 24.3203 178.185 24.3416C177.289 24.7888 176.438 25.3425 175.608 25.8963C175.351 26.0666 175.097 26.2371 174.905 26.45C174.543 26.8759 174.436 27.4297 174.414 27.8129C174.394 28.324 174.5 28.8351 174.585 29.325C174.607 29.4102 174.564 29.4527 174.5 29.4742Z" fill="#554C45"/>
</svg>
