<svg width="24" height="24" viewBox="0 0 24 24" fill="none" xmlns="http://www.w3.org/2000/svg">
<path d="M23.3401 12.9642H15.0223C14.6588 12.9642 14.3624 13.2606 14.3624 13.624C14.3624 13.8091 14.4411 13.9759 14.5638 14.0962L20.4208 19.9532C20.5411 20.0828 20.7149 20.1639 20.9047 20.1639C21.1339 20.1639 21.3352 20.0481 21.4533 19.8722C22.8933 18.2007 23.8193 16.0779 23.9861 13.742C23.9953 13.7027 23.9999 13.6633 23.9999 13.6239C24 13.2606 23.7059 12.9642 23.3401 12.9642Z" fill="white" fill-opacity="0.4"/>
<path d="M12.5104 1.00708C12.1469 1.0093 11.8529 1.3034 11.8529 1.66684V10.9107C11.8529 11.2765 12.1469 11.5729 12.5104 11.5729H21.7566C22.1202 11.5729 22.4164 11.2765 22.4164 10.9107C22.0899 5.59091 17.8326 1.33355 12.5104 1.00708Z" fill="white"/>
<path d="M17.5919 19.4139L10.7719 12.5938C10.6562 12.4758 10.5868 12.3114 10.5868 12.1331L10.5843 2.50024C10.5843 2.1368 10.2904 1.84277 9.92684 1.84277C4.387 2.1808 0 6.78301 0 12.4063C0 18.2518 4.73896 22.993 10.5843 22.993C13.2512 22.993 15.6866 22.0068 17.5479 20.3792C17.6915 20.2588 17.7818 20.0783 17.7818 19.8769C17.7818 19.6986 17.7099 19.5342 17.5919 19.4139Z" fill="#FF664F"/>
</svg>
