<svg width="24" height="24" viewBox="0 0 24 24" fill="none" xmlns="http://www.w3.org/2000/svg">
<g clip-path="url(#clip0_4_253)">
<path d="M6 9.42676H0.858577C0.386611 9.42676 0.00502092 9.80835 0 10.2853V23.1389C0 23.6159 0.386611 23.9975 0.858577 23.9975H6C6.47699 23.9975 6.85858 23.6109 6.85858 23.1389V10.2853C6.85858 9.80835 6.47197 9.42676 6 9.42676Z" fill="#FF664F"/>
<path d="M14.5708 0.00256348H9.42938C8.95741 0.00256348 8.5708 0.384154 8.5708 0.85612V23.139C8.5708 23.616 8.95741 23.9975 9.42938 23.9975H14.5708C15.0478 23.9975 15.4294 23.6109 15.4294 23.139V0.861141C15.4294 0.384154 15.0428 0.00256348 14.5708 0.00256348Z" fill="white"/>
<path d="M23.141 6.85608H17.9996C17.5226 6.85608 17.141 7.23767 17.141 7.71466V23.1389C17.141 23.6159 17.5276 23.9975 17.9996 23.9975H23.141C23.618 23.9975 23.9996 23.6109 23.9996 23.1389V7.71466C23.9996 7.23767 23.613 6.85608 23.141 6.85608Z" fill="#FF664F"/>
</g>
<defs>
<clipPath id="clip0_4_253">
<rect width="24" height="24" fill="white"/>
</clipPath>
</defs>
</svg>
