<svg width="24" height="24" viewBox="0 0 24 24" fill="none" xmlns="http://www.w3.org/2000/svg">
<g clip-path="url(#clip0_4_243)">
<path d="M23.2969 5.71875H18.375V0.703125C18.375 0.314484 18.0605 0 17.6719 0H0.703125C0.314484 0 0 0.314484 0 0.703125V17.6719C0 18.0605 0.314484 18.375 0.703125 18.375H5.71875V23.2969C5.71875 23.6855 6.03323 24 6.42188 24H23.2969C23.6855 24 24 23.6855 24 23.2969V6.42188C24 6.03323 23.6855 5.71875 23.2969 5.71875ZM16.9688 16.9688H7.125V7.125H16.9688V16.9688Z" fill="white"/>
<path d="M18.375 5.71875H23.2969C23.6855 5.71875 24 6.03323 24 6.42188V23.2969C24 23.6855 23.6855 24 23.2969 24H6.42188C6.03323 24 5.71875 23.6855 5.71875 23.2969V18.375L7.125 16.9688H16.9688V7.125L18.375 5.71875Z" fill="#FF664F"/>
</g>
<defs>
<clipPath id="clip0_4_243">
<rect width="24" height="24" fill="white"/>
</clipPath>
</defs>
</svg>
