<svg width="8" height="8" viewBox="0 0 8 8" fill="none" xmlns="http://www.w3.org/2000/svg">
<g id="icon" clip-path="url(#clip0_4_212)">
<g id="Group">
<path id="Vector" d="M6.91787 6.81373C7.46749 6.2641 7.82604 5.59583 7.99368 4.89135C8.04169 4.68955 7.79368 4.55332 7.64738 4.70035C7.64558 4.70216 7.64379 4.70396 7.64199 4.70575C6.41911 5.92863 4.42177 5.90505 3.22876 4.63503C2.10401 3.43767 2.11877 1.57878 3.26094 0.398029C3.27534 0.383142 3.28985 0.368431 3.30448 0.353896C3.45119 0.208144 3.31407 -0.0387274 3.11287 0.00908554C2.41466 0.175016 1.75194 0.528447 1.205 1.06956C-0.394178 2.65173 -0.403185 5.2169 1.18533 6.80974C2.7669 8.39564 5.33463 8.39695 6.91787 6.81373Z" fill="#2A2B33"/>
</g>
</g>
<defs>
<clipPath id="clip0_4_212">
<rect width="8" height="8" fill="white"/>
</clipPath>
</defs>
</svg>
