<svg width="69" height="37" viewBox="0 0 69 37" fill="none" xmlns="http://www.w3.org/2000/svg">
<g id="icon">
<path id="Ellipse 20" d="M17.4998 37C24.9557 37 30.9998 30.9558 30.9998 23.5C30.9998 16.0442 24.9557 10 17.4998 10C13.2584 10 9.4738 11.956 6.99889 15.0152C4.49889 10 6.99889 5 8.99889 0H3.99982C-6.49925 31.5 10.5 37 17.4998 37Z" fill="#313339"/>
<path id="Ellipse 21" d="M54.8377 37C62.2935 37 68.3377 30.9558 68.3377 23.5C68.3377 16.0442 62.2935 10 54.8377 10C50.5963 10 46.8117 11.956 44.3368 15.0152C41.8368 10 44.3368 5 46.3368 0H41.3377C30.8386 31.5 47.8379 37 54.8377 37Z" fill="#313339"/>
</g>
</svg>
